<?xml version="1.0" encoding="UTF-8" standalone="no"?>
<!-- Created with Inkscape (http://www.inkscape.org/) -->

<svg
   width="210mm"
   height="297mm"
   viewBox="0 0 210 297"
   version="1.1"
   id="svg1"
   xml:space="preserve"
   xmlns="http://www.w3.org/2000/svg"
   xmlns:svg="http://www.w3.org/2000/svg"><defs
     id="defs1" /><g
     id="layer1"><text
       xml:space="preserve"
       style="font-size:34.7814px;line-height:0.1;font-family:'Space Crusaders';-inkscape-font-specification:'Space Crusaders';text-align:start;writing-mode:lr-tb;direction:ltr;text-anchor:start;fill:#f5f5f5;fill-opacity:1;stroke:#ffffff;stroke-width:0.448462;stroke-opacity:0"
       x="34.870152"
       y="33.268311"
       id="text1"
       transform="scale(0.97948083,1.020949)"><tspan
         id="tspan1"
         style="fill:#f5f5f5;fill-opacity:1;stroke-width:0.448462"
         x="34.870152"
         y="33.268311">stroview</tspan></text><g
       id="g1"
       transform="matrix(0.35333805,0,0,0.35697432,0.50552993,0.66761449)"><g
         id="layer1-8"
         transform="matrix(0.95430463,0,0,0.94504209,-22.191147,-147.62733)"
         style="display:none"><rect
           style="fill:#640a9a;fill-opacity:1;stroke-width:0.725434;stroke-dasharray:none"
           id="rect11"
           width="130.98543"
           height="132.02638"
           x="13.652924"
           y="145.96652"
           ry="35.388515" /><rect
           style="fill:#750cb5;fill-opacity:1;stroke-width:0.689719;stroke-dasharray:none"
           id="rect9"
           width="125"
           height="125"
           x="13.652924"
           y="145.72366"
           ry="33.505154" /></g><g
         id="layer2"
         transform="matrix(1.0364331,0,0,1.1040946,-26.873844,-175.27516)"><path
           id="rect1"
           style="fill:#f5f5f5;fill-opacity:1;stroke-width:0.19898"
           d="m 76.129285,158.75012 -19.16472,43.43973 16.59743,10.92853 2.56677,-6.38514 2.48357,6.1774 16.59175,-10.92492 z m 26.482625,60.02735 -17.435115,10.46137 5.83375,14.51126 h 22.618795 z m -53.048962,0.19017 -10.9337,24.78246 h 22.618777 l 5.75572,-14.31799 z" /><path
           id="path4"
           style="fill:#c00000;fill-opacity:1;stroke-width:0.136499"
           d="M 125.92915,203.20005 H 95.770845 l -19.84144,13.06468 -19.84196,-13.06468 H 25.929167 l 49.999658,30.00003" /></g></g></g></svg>
